<?xml version="1.0" standalone="no"?>
<!DOCTYPE svg PUBLIC "-//W3C//DTD SVG 20010904//EN"
 "http://www.w3.org/TR/2001/REC-SVG-20010904/DTD/svg10.dtd">
<svg version="1.0" xmlns="http://www.w3.org/2000/svg"
 width="64.000000pt" height="64.000000pt" viewBox="0 0 64.000000 64.000000"
 preserveAspectRatio="xMidYMid meet">

<g transform="translate(0.000000,64.000000) scale(0.100000,-0.100000)"
fill="#000000" stroke="none">
<path d="M127 553 c-4 -3 -7 -93 -7 -200 l0 -193 185 0 c157 0 187 -2 191 -15
4 -8 1 -22 -6 -30 -10 -12 -45 -15 -191 -15 -113 0 -179 -4 -179 -10 0 -6 68
-10 183 -10 165 0 186 2 200 18 25 27 25 422 1 446 -13 13 -45 16 -193 16 -98
0 -181 -3 -184 -7z m353 -193 l0 -180 -170 0 -170 0 0 180 0 180 170 0 170 0
0 -180z"/>
<path d="M265 471 c-45 -20 -70 -60 -70 -112 0 -42 5 -53 33 -81 47 -48 117
-48 164 0 28 28 33 39 33 82 0 42 -5 54 -31 81 -33 33 -92 46 -129 30z m89
-27 c9 -8 16 -22 16 -30 0 -20 -37 -54 -58 -54 -28 0 -55 -35 -50 -64 7 -33
-18 -23 -37 15 -18 34 -19 66 -1 98 26 47 99 67 130 35z m-28 -125 c10 -17
-13 -36 -27 -22 -12 12 -4 33 11 33 5 0 12 -5 16 -11z"/>
<path d="M294 419 c-10 -17 13 -36 27 -22 12 12 4 33 -11 33 -5 0 -12 -5 -16
-11z"/>
<path d="M140 130 c0 -6 63 -10 170 -10 107 0 170 4 170 10 0 6 -63 10 -170
10 -107 0 -170 -4 -170 -10z"/>
</g>
</svg>
